<svg version="1.1" viewBox="0 0 512 512" xmlns="http://www.w3.org/2000/svg">
<path id="LogopathPunto" style="fill:#fff" d="m241.92 180.69c-21.279-10.876-23.485-35.99-4.4223-50.34 21.205-15.962 51.737-5.4598 57.622 19.82 1.8512 7.9523-2.0085 18.067-9.5279 24.969-12.23 11.226-28.518 13.296-43.672 5.5509z"
/>
<path id="LogopathH" style="fill:#fff" d="m194.55 379.94c-17.147-2.5991-31.333-4.86-31.523-5.0242-0.18793-0.16187 9.0426-65.546 12.328-135.06 2.9678-62.802 3e-3 -130.41 0.18745-130.57 0.66167-0.56997 35.007-3.4396 35.552-2.9704 0.35871 0.309 2.0966 21.336 3.8621 46.728 1.7654 25.391 3.3769 46.279 3.5811 46.418 0.43541 0.29561 75.832 3.5419 81.511 3.5096l3.86-0.022-0.74055-27.656c-0.4073-15.211-1.0658-36.577-1.4633-47.48l-0.7227-19.824h43.364l-0.53044 3.1816c-1.9939 11.959-12.026 118.77-11.948 127.21 0.0531 5.758 1.3353 19.194 2.8493 29.859 3.499 24.646 12.53 103 11.93 103.51-0.64011 0.53841-55.532 3.8622-56.061 3.3946-0.23957-0.21162-2.4362-27.141-4.8815-59.843-2.4452-32.702-4.7632-59.731-5.1509-60.066-0.67862-0.58456-58.629 3.9569-59.29 4.6465-0.17821 0.18588 0.78112 28.312 2.1318 62.502 1.3507 34.19 2.428 62.191 2.394 62.224-0.034 0.033-14.091-2.0667-31.238-4.6658zm71.732-145.69c20.43-2.1397 37.691-3.8904 38.356-3.8904 1.7712 0 1.5706-10.722-0.2107-11.257-1.638-0.49255-75.325-5.3852-81.105-5.3852h-3.8465v25.573l4.83-0.575c2.6565-0.31624 21.546-2.3256 41.976-4.4653z"
/>
</svg>